<mxfile host="app.diagrams.net" modified="2024-05-31T11:43:54.605Z" agent="Mozilla/5.0 (Windows NT 10.0; Win64; x64) AppleWebKit/537.36 (KHTML, like Gecko) Chrome/125.0.0.0 Safari/537.36 Edg/125.0.0.0" etag="5IVEIDfnUnnRZWlivOJU" version="24.4.4" type="github">
  <diagram id="C5RBs43oDa-KdzZeNtuy" name="Page-1">
    <mxGraphModel dx="1573" dy="459" grid="1" gridSize="10" guides="1" tooltips="1" connect="1" arrows="1" fold="1" page="1" pageScale="1" pageWidth="827" pageHeight="1169" background="#000000" math="0" shadow="0">
      <root>
        <mxCell id="WIyWlLk6GJQsqaUBKTNV-0" />
        <mxCell id="WIyWlLk6GJQsqaUBKTNV-1" parent="WIyWlLk6GJQsqaUBKTNV-0" />
        <mxCell id="aTj_3DBzCQMMQF9XrK4T-10" value="" style="edgeStyle=orthogonalEdgeStyle;rounded=0;orthogonalLoop=1;jettySize=auto;html=1;labelBorderColor=none;fontColor=#FFFFFF;labelBackgroundColor=none;strokeColor=#FFFFFF;" edge="1" parent="WIyWlLk6GJQsqaUBKTNV-1" source="aTj_3DBzCQMMQF9XrK4T-0" target="aTj_3DBzCQMMQF9XrK4T-6">
          <mxGeometry relative="1" as="geometry" />
        </mxCell>
        <mxCell id="aTj_3DBzCQMMQF9XrK4T-0" value="Start" style="ellipse;whiteSpace=wrap;html=1;fillColor=none;strokeColor=#2D7600;labelBorderColor=none;fontColor=#ffffff;labelBackgroundColor=none;" vertex="1" parent="WIyWlLk6GJQsqaUBKTNV-1">
          <mxGeometry x="85" width="90" height="30" as="geometry" />
        </mxCell>
        <mxCell id="aTj_3DBzCQMMQF9XrK4T-1" value="Live data pulled for 15 min" style="rounded=0;whiteSpace=wrap;html=1;labelBorderColor=none;fontColor=#FFFFFF;labelBackgroundColor=none;strokeColor=#FFFFFF;fillColor=none;" vertex="1" parent="WIyWlLk6GJQsqaUBKTNV-1">
          <mxGeometry x="50" y="210" width="160" height="50" as="geometry" />
        </mxCell>
        <mxCell id="aTj_3DBzCQMMQF9XrK4T-14" value="" style="edgeStyle=orthogonalEdgeStyle;rounded=0;orthogonalLoop=1;jettySize=auto;html=1;labelBorderColor=none;fontColor=#FFFFFF;labelBackgroundColor=none;strokeColor=#FFFFFF;" edge="1" parent="WIyWlLk6GJQsqaUBKTNV-1" source="aTj_3DBzCQMMQF9XrK4T-3" target="aTj_3DBzCQMMQF9XrK4T-13">
          <mxGeometry relative="1" as="geometry" />
        </mxCell>
        <mxCell id="aTj_3DBzCQMMQF9XrK4T-3" value="&lt;div&gt;&lt;br&gt;&lt;/div&gt;&lt;div&gt;&lt;br&gt;&lt;/div&gt;&lt;div&gt;&lt;br&gt;&lt;/div&gt;&lt;div&gt;&lt;br&gt;&lt;/div&gt;&lt;div&gt;Data Puller&amp;nbsp; get_data()&lt;/div&gt;" style="rounded=0;whiteSpace=wrap;html=1;fillColor=none;strokeColor=#FFFFFF;labelBorderColor=none;fontColor=#FFFFFF;labelBackgroundColor=none;" vertex="1" parent="WIyWlLk6GJQsqaUBKTNV-1">
          <mxGeometry x="40" y="200" width="180" height="100" as="geometry" />
        </mxCell>
        <mxCell id="aTj_3DBzCQMMQF9XrK4T-5" value="data_import.py" style="text;html=1;align=center;verticalAlign=middle;resizable=0;points=[];autosize=1;strokeColor=none;fillColor=none;labelBorderColor=none;fontColor=#FFFFFF;labelBackgroundColor=none;" vertex="1" parent="WIyWlLk6GJQsqaUBKTNV-1">
          <mxGeometry x="140" y="160" width="100" height="30" as="geometry" />
        </mxCell>
        <mxCell id="aTj_3DBzCQMMQF9XrK4T-11" value="" style="edgeStyle=orthogonalEdgeStyle;rounded=0;orthogonalLoop=1;jettySize=auto;html=1;entryX=0.5;entryY=0;entryDx=0;entryDy=0;labelBorderColor=none;fontColor=#FFFFFF;labelBackgroundColor=none;strokeColor=#FFFFFF;" edge="1" parent="WIyWlLk6GJQsqaUBKTNV-1" source="aTj_3DBzCQMMQF9XrK4T-6" target="aTj_3DBzCQMMQF9XrK4T-3">
          <mxGeometry relative="1" as="geometry" />
        </mxCell>
        <mxCell id="aTj_3DBzCQMMQF9XrK4T-6" value="Fetch Absolute Time for 15 min" style="rounded=0;whiteSpace=wrap;html=1;labelBorderColor=none;fontColor=#FFFFFF;labelBackgroundColor=none;strokeColor=#FFFFFF;fillColor=none;" vertex="1" parent="WIyWlLk6GJQsqaUBKTNV-1">
          <mxGeometry x="40" y="80" width="180" height="60" as="geometry" />
        </mxCell>
        <mxCell id="aTj_3DBzCQMMQF9XrK4T-12" value="" style="rounded=0;whiteSpace=wrap;html=1;fillColor=none;strokeColor=#33FF99;labelBorderColor=none;fontColor=#FFFFFF;labelBackgroundColor=none;" vertex="1" parent="WIyWlLk6GJQsqaUBKTNV-1">
          <mxGeometry x="20" y="70" width="230" height="250" as="geometry" />
        </mxCell>
        <mxCell id="aTj_3DBzCQMMQF9XrK4T-28" value="" style="edgeStyle=orthogonalEdgeStyle;rounded=0;orthogonalLoop=1;jettySize=auto;html=1;labelBorderColor=none;fontColor=#FFFFFF;labelBackgroundColor=none;strokeColor=#FFFFFF;" edge="1" parent="WIyWlLk6GJQsqaUBKTNV-1" source="aTj_3DBzCQMMQF9XrK4T-13" target="aTj_3DBzCQMMQF9XrK4T-27">
          <mxGeometry relative="1" as="geometry" />
        </mxCell>
        <mxCell id="aTj_3DBzCQMMQF9XrK4T-31" style="edgeStyle=orthogonalEdgeStyle;rounded=0;orthogonalLoop=1;jettySize=auto;html=1;labelBorderColor=none;fontColor=#FFFFFF;labelBackgroundColor=none;strokeColor=#FFFFFF;" edge="1" parent="WIyWlLk6GJQsqaUBKTNV-1" source="aTj_3DBzCQMMQF9XrK4T-13">
          <mxGeometry relative="1" as="geometry">
            <mxPoint x="360" y="480" as="targetPoint" />
          </mxGeometry>
        </mxCell>
        <mxCell id="aTj_3DBzCQMMQF9XrK4T-13" value="&amp;nbsp;Model" style="rounded=0;whiteSpace=wrap;html=1;fillColor=none;strokeColor=#FFFFFF;labelBorderColor=none;fontColor=#FFFFFF;labelBackgroundColor=none;" vertex="1" parent="WIyWlLk6GJQsqaUBKTNV-1">
          <mxGeometry x="40" y="340" width="180" height="50" as="geometry" />
        </mxCell>
        <mxCell id="aTj_3DBzCQMMQF9XrK4T-18" value="" style="edgeStyle=orthogonalEdgeStyle;rounded=0;orthogonalLoop=1;jettySize=auto;html=1;labelBorderColor=none;fontColor=#FFFFFF;labelBackgroundColor=none;strokeColor=#FFFFFF;" edge="1" parent="WIyWlLk6GJQsqaUBKTNV-1" source="aTj_3DBzCQMMQF9XrK4T-15" target="aTj_3DBzCQMMQF9XrK4T-17">
          <mxGeometry relative="1" as="geometry" />
        </mxCell>
        <mxCell id="aTj_3DBzCQMMQF9XrK4T-23" value="" style="edgeStyle=orthogonalEdgeStyle;rounded=0;orthogonalLoop=1;jettySize=auto;html=1;labelBorderColor=none;fontColor=#FFFFFF;labelBackgroundColor=none;strokeColor=#FFFFFF;" edge="1" parent="WIyWlLk6GJQsqaUBKTNV-1" source="aTj_3DBzCQMMQF9XrK4T-15" target="aTj_3DBzCQMMQF9XrK4T-21">
          <mxGeometry relative="1" as="geometry" />
        </mxCell>
        <mxCell id="aTj_3DBzCQMMQF9XrK4T-15" value="IF ML Flow&lt;div&gt;Fails&lt;/div&gt;" style="rhombus;whiteSpace=wrap;html=1;fillColor=none;strokeColor=#FFFFFF;rounded=0;labelBorderColor=none;fontColor=#FFFFFF;labelBackgroundColor=none;" vertex="1" parent="WIyWlLk6GJQsqaUBKTNV-1">
          <mxGeometry x="70" y="467.5" width="120" height="95" as="geometry" />
        </mxCell>
        <mxCell id="aTj_3DBzCQMMQF9XrK4T-30" style="edgeStyle=orthogonalEdgeStyle;rounded=0;orthogonalLoop=1;jettySize=auto;html=1;entryX=0;entryY=0.5;entryDx=0;entryDy=0;labelBorderColor=none;fontColor=#FFFFFF;labelBackgroundColor=none;strokeColor=#FFFFFF;" edge="1" parent="WIyWlLk6GJQsqaUBKTNV-1" source="aTj_3DBzCQMMQF9XrK4T-17" target="aTj_3DBzCQMMQF9XrK4T-13">
          <mxGeometry relative="1" as="geometry">
            <Array as="points">
              <mxPoint x="-20" y="650" />
              <mxPoint x="-20" y="365" />
            </Array>
          </mxGeometry>
        </mxCell>
        <mxCell id="aTj_3DBzCQMMQF9XrK4T-17" value="Get Locally saved Model" style="rounded=0;whiteSpace=wrap;html=1;fillColor=none;strokeColor=#FFFFFF;labelBorderColor=none;fontColor=#FFFFFF;labelBackgroundColor=none;" vertex="1" parent="WIyWlLk6GJQsqaUBKTNV-1">
          <mxGeometry x="70" y="620" width="120" height="60" as="geometry" />
        </mxCell>
        <mxCell id="aTj_3DBzCQMMQF9XrK4T-19" value="Yes" style="text;html=1;align=center;verticalAlign=middle;resizable=0;points=[];autosize=1;strokeColor=none;fillColor=none;labelBorderColor=none;fontColor=#FFFFFF;labelBackgroundColor=none;" vertex="1" parent="WIyWlLk6GJQsqaUBKTNV-1">
          <mxGeometry x="135" y="550" width="40" height="30" as="geometry" />
        </mxCell>
        <mxCell id="aTj_3DBzCQMMQF9XrK4T-20" value="No" style="text;html=1;align=center;verticalAlign=middle;resizable=0;points=[];autosize=1;strokeColor=none;fillColor=none;labelBorderColor=none;fontColor=#FFFFFF;labelBackgroundColor=none;" vertex="1" parent="WIyWlLk6GJQsqaUBKTNV-1">
          <mxGeometry x="190" y="482.5" width="40" height="30" as="geometry" />
        </mxCell>
        <mxCell id="aTj_3DBzCQMMQF9XrK4T-33" value="" style="edgeStyle=orthogonalEdgeStyle;rounded=0;orthogonalLoop=1;jettySize=auto;html=1;labelBorderColor=none;fontColor=#FFFFFF;labelBackgroundColor=none;strokeColor=#FFFFFF;" edge="1" parent="WIyWlLk6GJQsqaUBKTNV-1" source="aTj_3DBzCQMMQF9XrK4T-21" target="aTj_3DBzCQMMQF9XrK4T-32">
          <mxGeometry relative="1" as="geometry" />
        </mxCell>
        <mxCell id="aTj_3DBzCQMMQF9XrK4T-21" value="Loading Profile" style="whiteSpace=wrap;html=1;fillColor=none;strokeColor=#FFFFFF;labelBorderColor=none;fontColor=#FFFFFF;labelBackgroundColor=none;" vertex="1" parent="WIyWlLk6GJQsqaUBKTNV-1">
          <mxGeometry x="294" y="485" width="120" height="60" as="geometry" />
        </mxCell>
        <mxCell id="aTj_3DBzCQMMQF9XrK4T-24" value="" style="rounded=0;whiteSpace=wrap;html=1;fillColor=none;strokeColor=#ae4132;labelBorderColor=none;labelBackgroundColor=none;" vertex="1" parent="WIyWlLk6GJQsqaUBKTNV-1">
          <mxGeometry x="20" y="450" width="230" height="160" as="geometry" />
        </mxCell>
        <mxCell id="aTj_3DBzCQMMQF9XrK4T-29" value="" style="edgeStyle=orthogonalEdgeStyle;rounded=0;orthogonalLoop=1;jettySize=auto;html=1;entryX=0.5;entryY=0;entryDx=0;entryDy=0;labelBorderColor=none;fontColor=#FFFFFF;labelBackgroundColor=none;strokeColor=#FFFFFF;" edge="1" parent="WIyWlLk6GJQsqaUBKTNV-1" source="aTj_3DBzCQMMQF9XrK4T-27" target="aTj_3DBzCQMMQF9XrK4T-15">
          <mxGeometry relative="1" as="geometry" />
        </mxCell>
        <mxCell id="aTj_3DBzCQMMQF9XrK4T-27" value="ML FLow" style="rounded=0;whiteSpace=wrap;html=1;labelBorderColor=none;fontColor=#FFFFFF;labelBackgroundColor=none;strokeColor=#FFFFFF;fillColor=none;" vertex="1" parent="WIyWlLk6GJQsqaUBKTNV-1">
          <mxGeometry x="60" y="405" width="140" height="40" as="geometry" />
        </mxCell>
        <mxCell id="aTj_3DBzCQMMQF9XrK4T-35" value="" style="edgeStyle=orthogonalEdgeStyle;rounded=0;orthogonalLoop=1;jettySize=auto;html=1;strokeColor=#FFFFFF;" edge="1" parent="WIyWlLk6GJQsqaUBKTNV-1" source="aTj_3DBzCQMMQF9XrK4T-32" target="aTj_3DBzCQMMQF9XrK4T-34">
          <mxGeometry relative="1" as="geometry" />
        </mxCell>
        <mxCell id="aTj_3DBzCQMMQF9XrK4T-32" value="Get beta recommendations" style="whiteSpace=wrap;html=1;labelBorderColor=none;fontColor=#FFFFFF;labelBackgroundColor=none;strokeColor=#FFFFFF;fillColor=none;" vertex="1" parent="WIyWlLk6GJQsqaUBKTNV-1">
          <mxGeometry x="289" y="562.5" width="130" height="47.5" as="geometry" />
        </mxCell>
        <mxCell id="aTj_3DBzCQMMQF9XrK4T-37" value="" style="edgeStyle=orthogonalEdgeStyle;rounded=0;orthogonalLoop=1;jettySize=auto;html=1;strokeColor=#FFFFFF;" edge="1" parent="WIyWlLk6GJQsqaUBKTNV-1" source="aTj_3DBzCQMMQF9XrK4T-34" target="aTj_3DBzCQMMQF9XrK4T-36">
          <mxGeometry relative="1" as="geometry" />
        </mxCell>
        <mxCell id="aTj_3DBzCQMMQF9XrK4T-34" value="Calculate current bound for Live Beta&amp;nbsp;" style="whiteSpace=wrap;html=1;fillColor=none;strokeColor=#FFFFFF;fontColor=#FFFFFF;labelBorderColor=none;labelBackgroundColor=none;" vertex="1" parent="WIyWlLk6GJQsqaUBKTNV-1">
          <mxGeometry x="289" y="630" width="130" height="55" as="geometry" />
        </mxCell>
        <mxCell id="aTj_3DBzCQMMQF9XrK4T-41" value="" style="edgeStyle=orthogonalEdgeStyle;rounded=0;orthogonalLoop=1;jettySize=auto;html=1;strokeColor=#FFFFFF;" edge="1" parent="WIyWlLk6GJQsqaUBKTNV-1" source="aTj_3DBzCQMMQF9XrK4T-36" target="aTj_3DBzCQMMQF9XrK4T-40">
          <mxGeometry relative="1" as="geometry" />
        </mxCell>
        <mxCell id="aTj_3DBzCQMMQF9XrK4T-36" value="Calculate bounds for live data controllable and non controllable parameters" style="whiteSpace=wrap;html=1;fillColor=none;strokeColor=#FFFFFF;fontColor=#FFFFFF;labelBorderColor=none;labelBackgroundColor=none;" vertex="1" parent="WIyWlLk6GJQsqaUBKTNV-1">
          <mxGeometry x="294" y="700" width="120" height="60" as="geometry" />
        </mxCell>
        <mxCell id="aTj_3DBzCQMMQF9XrK4T-44" value="" style="edgeStyle=orthogonalEdgeStyle;rounded=0;orthogonalLoop=1;jettySize=auto;html=1;fontColor=#1f0000;strokeColor=#FFFFFF;" edge="1" parent="WIyWlLk6GJQsqaUBKTNV-1" source="aTj_3DBzCQMMQF9XrK4T-38" target="aTj_3DBzCQMMQF9XrK4T-43">
          <mxGeometry relative="1" as="geometry" />
        </mxCell>
        <mxCell id="aTj_3DBzCQMMQF9XrK4T-38" value="Calculate recommendations for live data" style="whiteSpace=wrap;html=1;fillColor=none;strokeColor=#FFFFFF;fontColor=#FFFFFF;labelBorderColor=none;labelBackgroundColor=none;" vertex="1" parent="WIyWlLk6GJQsqaUBKTNV-1">
          <mxGeometry x="294" y="860" width="120" height="60" as="geometry" />
        </mxCell>
        <mxCell id="aTj_3DBzCQMMQF9XrK4T-42" value="" style="edgeStyle=orthogonalEdgeStyle;rounded=0;orthogonalLoop=1;jettySize=auto;html=1;strokeColor=#FFFFFF;" edge="1" parent="WIyWlLk6GJQsqaUBKTNV-1" source="aTj_3DBzCQMMQF9XrK4T-40" target="aTj_3DBzCQMMQF9XrK4T-38">
          <mxGeometry relative="1" as="geometry" />
        </mxCell>
        <mxCell id="aTj_3DBzCQMMQF9XrK4T-40" value="Differential Evolution" style="whiteSpace=wrap;html=1;fillColor=none;strokeColor=#FFFFFF;fontColor=#FFFFFF;labelBorderColor=none;labelBackgroundColor=none;" vertex="1" parent="WIyWlLk6GJQsqaUBKTNV-1">
          <mxGeometry x="294" y="780" width="120" height="60" as="geometry" />
        </mxCell>
        <mxCell id="aTj_3DBzCQMMQF9XrK4T-52" style="edgeStyle=orthogonalEdgeStyle;rounded=0;orthogonalLoop=1;jettySize=auto;html=1;exitX=0.5;exitY=1;exitDx=0;exitDy=0;entryX=0.5;entryY=0;entryDx=0;entryDy=0;strokeColor=#FFFFFF;" edge="1" parent="WIyWlLk6GJQsqaUBKTNV-1" source="aTj_3DBzCQMMQF9XrK4T-43" target="aTj_3DBzCQMMQF9XrK4T-47">
          <mxGeometry relative="1" as="geometry" />
        </mxCell>
        <mxCell id="aTj_3DBzCQMMQF9XrK4T-43" value="Recommending upper and lower limit&amp;nbsp;" style="whiteSpace=wrap;html=1;fillColor=none;strokeColor=#FFFFFF;fontColor=#FFFFFF;labelBorderColor=none;labelBackgroundColor=none;" vertex="1" parent="WIyWlLk6GJQsqaUBKTNV-1">
          <mxGeometry x="294" y="950" width="120" height="60" as="geometry" />
        </mxCell>
        <mxCell id="aTj_3DBzCQMMQF9XrK4T-47" value="Generate final recommended data" style="whiteSpace=wrap;html=1;fillColor=none;strokeColor=#FFFFFF;fontColor=#FFFFFF;labelBorderColor=none;labelBackgroundColor=none;" vertex="1" parent="WIyWlLk6GJQsqaUBKTNV-1">
          <mxGeometry x="294" y="1030" width="120" height="60" as="geometry" />
        </mxCell>
      </root>
    </mxGraphModel>
  </diagram>
</mxfile>
